# xmcd
#
# Track frame offsets: 
#        150
#        8005
#        17450
#        38707
#        50897
#        63530
#        74327
#        83275
#        95530
#        105787
#        118597
#        128742
#        139140
#        148955
#        157937
#        167742
#        175642
#        184025
#        194890
#        206270
#        216932
#        227397
#        235830
#        244590
#        254355
#
# Disc length: 3520 seconds
#
# Revision: 8
# Processed by: cddbd v1.5.2PL0 Copyright (c) Steve Scherf et al.
# Submitted via: ExactAudioCopyFreeDBPlugin 1.0
#
DISCID=4e0dbe19
DTITLE=Fats Domino - Antoine "Fats" Domino:  "They Call Me The Fat Man
DTITLE=. . ." - The Legendary Imperial Recordings) [box set]
DYEAR=1991
DGENRE=Rhythm and Blues
TTITLE0=Shu Rah
TTITLE1=My Girl Josephine
TTITLE2=Natural Born Lover
TTITLE3=Ain't That Just Like a Woman
TTITLE4=It Keeps Rainin'
TTITLE5=What a Price
TTITLE6=Fell in Love on Monday
TTITLE7=Bad Luck and Trouble
TTITLE8=Good Hearted Man
TTITLE9=One Night
TTITLE10=You Win Again
TTITLE11=Let the Four Winds Blow
TTITLE12=Your Cheatin' Heart
TTITLE13=What a Party
TTITLE14=Rockin' Bicycle
TTITLE15=Did You Ever See a Dream Walking
TTITLE16=Birds and Bees
TTITLE17=Jambalaya (On the Bayou)
TTITLE18=Do You Know What it Means to Miss New Orleans
TTITLE19=Stop the Clock
TTITLE20=My Real Name
TTITLE21=Hum Diddy Doo
TTITLE22=I Want to Go Home
TTITLE23=Dance with Mr. Domino
TTITLE24=Nothing New (Same Old Thing)
EXTD=ANTOINE "FATS" DOMINO "THEY CALL ME THE FAT MAN" - The Legendary 
EXTD=Imperial Recordings\n4 Disc-Boxset\nDigitally remastered\nCD 1: 1
EXTD=949 - 1955\nCD 2: 1955 - 1957\nCD 3: 1957 - 1960\nCD 4: 1960 - 19
EXTD=62\nLabel: EMI\nE2 7 96784-2
EXTT0=Domino, Fats
EXTT1=Domino, Fats
EXTT2=Domino, Fats
EXTT3=Domino, Fats
EXTT4=Domino, Fats
EXTT5=Domino, Fats
EXTT6=Domino, Fats
EXTT7=Domino, Fats
EXTT8=Domino, Fats
EXTT9=Domino, Fats
EXTT10=Domino, Fats
EXTT11=Domino, Fats
EXTT12=Domino, Fats
EXTT13=Domino, Fats
EXTT14=Domino, Fats
EXTT15=Domino, Fats
EXTT16=Domino, Fats
EXTT17=Domino, Fats
EXTT18=Domino, Fats
EXTT19=Domino, Fats
EXTT20=Domino, Fats
EXTT21=Domino, Fats
EXTT22=Domino, Fats
EXTT23=Domino, Fats
EXTT24=Domino, Fats
PLAYORDER=
